<?xml version="1.0" encoding="UTF-8"?>
<!DOCTYPE svg PUBLIC "-//W3C//DTD SVG 1.1//EN" "http://www.w3.org/Graphics/SVG/1.1/DTD/svg11.dtd">
<!-- Creator: CorelDRAW 2020 (64 Bit) -->
<svg xmlns="http://www.w3.org/2000/svg" xml:space="preserve" width="42.3332mm" height="42.3332mm" version="1.1" style="shape-rendering:geometricPrecision; text-rendering:geometricPrecision; image-rendering:optimizeQuality; fill-rule:evenodd; clip-rule:evenodd"
viewBox="0 0 4233.32 4233.32"
 xmlns:xlink="http://www.w3.org/1999/xlink"
 xmlns:xodm="http://www.corel.com/coreldraw/odm/2003">
 <defs>
  <style type="text/css">
   <![CDATA[
    .fil0 {fill:#FEFEFE}
   ]]>
  </style>
 </defs>
 <g id="Camada_x0020_1">
  <metadata id="CorelCorpID_0Corel-Layer"/>
  <path class="fil0" d="M2853.23 2873.41c28.39,92.14 31.36,141.3 104.86,188.99 172.92,112.17 279.51,-136.72 446.95,-104.13 165.18,32.16 93.53,217.18 228.99,392.12 187.41,242.06 29.62,201.17 -324.25,431.3 -127.35,82.81 -145.84,198.72 -337.12,263.89 -185.45,63.18 -347.77,-42.38 -366.08,-201.85 -15.7,-136.68 88.23,-370.62 103.98,-505.41 15.27,-130.65 5.15,-453.92 142.67,-464.91zm-2308.93 514.91c-48.02,-278.6 135.5,-220.09 262.74,-323.81 100.77,-82.14 162.08,-290.17 348.7,-158.96 103.8,72.99 160.74,234.98 228.55,355.44 101.8,180.8 541.45,583 180.52,734.5 -216.09,90.71 -401.02,-79.77 -684.12,-134.31 -69.41,-13.36 -193.7,-13.31 -264.53,-38.41 -190.62,-67.6 -28.04,-180.3 -71.86,-434.45zm2387.39 -680.28c116.12,-26.13 245.31,37.38 275.25,127.2 -14.78,108.03 -113.67,147.17 -229.59,143.36 -56.76,-83.77 -119.06,-141.05 -45.66,-270.56zm-1222.66 -1298.39c126.36,37.05 188.92,224.74 422.58,136.72 77.18,-29.06 101.63,-65.12 185.51,-100.41 74.26,-31.27 130.83,-79.61 172.04,-94.46 82.72,239.7 112.14,368.49 233.21,618.79 102.38,211.68 192.92,376.28 234.99,620.61l97.71 1.94c61.05,-198.59 42.77,-287.41 -53.07,-487.75 -10.99,-22.98 -23.36,-42.61 -33.74,-73.41 130.03,221.96 175.83,273.68 155.98,595.45 95.17,40.03 283.84,138.06 234.66,256.69 -14.8,-24.93 -4.12,-56.52 -50.86,-108.36 -23.61,-26.17 -45.11,-41.53 -81.26,-61.8 -58.44,-32.76 -143.55,-67.01 -215.54,-66.84 -139.35,0.34 -107.82,14.6 -160.66,108.72 -30.29,53.94 -84.9,77.01 -120.14,130.22 -71.69,108.22 -70.63,277.62 -85.95,422.17 -20.53,193.72 -29.79,232.13 -191.33,312.31 -333.96,165.76 -786.52,71.32 -832.19,-168.72 55.62,-29.44 95.94,-25.33 108.48,-99.11 36.11,-212.38 -390.63,-440.35 -456.19,-501.1 -230.02,-213.22 -58.27,-555.79 11.4,-720.54 -13.53,52.75 -39.16,98.75 -55.9,156.33 -67.4,231.72 0.97,462.02 61.13,453.32 17.58,-30.23 48.93,-283.86 77.06,-365.69 98.29,-285.9 333.29,-612.51 342.08,-965.08zm306.66 110.55c-114.66,0 -158.13,-72.92 -224.83,-119.6 -243.15,-170.1 -127.87,-172.66 62.37,-339.8 176.17,-154.78 340.48,-1.68 503.79,59.56 76.3,28.59 159.92,73.25 107.47,171.5 -39.85,74.66 -348.89,228.34 -448.8,228.34zm-348.41 -628.67c0,-108.61 83.65,-232.31 188.62,-156.93 10.98,7.88 153.76,174.79 35.89,248.56l-13.66 -18.71c-57.17,-96.29 28.85,61.73 -11.29,-20.51 -14,-28.67 -24.49,-92.83 -72.38,-93.17 -138.44,36.67 -23.78,184.83 -51.46,242.77 -73.39,-23.28 -75.72,-120.48 -75.72,-202.01zm490.63 90.02c-53.85,-21.52 -65.61,-1.29 -61.61,-87.27 4.31,-93.05 96.03,-257.96 241.27,-212.96 147.62,45.72 185.86,288.14 85.65,412.27l-75.1 -28.22c9.53,-106.42 51.58,-222.96 -79.59,-254.09 -38.75,17.35 -60.69,34.88 -76.07,67.39l-34.55 102.88zm-1683.92 2311.95c0.15,83.28 18.5,118.52 12.96,205.42 -10.36,162.68 -152.62,346.62 192.07,404.81 123.54,20.87 267.11,25.03 371.89,70.2 177.63,76.54 483.03,202.36 645.52,12.26 72.57,-84.88 -0.87,-57.76 235.71,-95.89 224.48,-36.19 369.43,-7.4 605.03,4.83 28.37,32.29 127.76,341.58 484.54,200.79 216.9,-85.58 170.24,-173.19 435.48,-324.65 88.23,-50.37 165.83,-74.47 243.55,-135.97 27.51,-21.76 73.52,-61.18 81.56,-108.64 8.63,-50.92 -14.13,-101.33 -39.3,-143.64 -67.92,-114.19 -94.8,-92.73 -132.5,-246.13 -43.69,-177.85 -43.42,-152.21 -144.8,-238.46 3.75,-25.29 6.48,-34.79 11.44,-58.94 161.99,-789.87 -670.31,-1214.15 -670.37,-1647.7 -0.03,-219.55 11.95,-417.12 -45.11,-638.92 -88.91,-345.7 -330.19,-508.46 -725.85,-434.43 -624.2,116.78 -425.25,773.58 -460.25,1107.89 -35.33,337.51 -219.38,486.32 -411.23,773.38 -362.72,542.68 -225.8,810.27 -292.38,891.73 -74.04,90.59 -90.03,129.15 -219.43,177.46 -110.74,41.34 -176.31,87.07 -178.53,224.6z"/>
 </g>
</svg>
