<?xml version="1.0" encoding="UTF-8"?>
<!DOCTYPE svg PUBLIC "-//W3C//DTD SVG 1.1//EN" "http://www.w3.org/Graphics/SVG/1.1/DTD/svg11.dtd">
<!-- Creator: CorelDRAW 2020 (64 Bit) -->
<svg xmlns="http://www.w3.org/2000/svg" xml:space="preserve" width="42.3332mm" height="42.3332mm" version="1.1" style="shape-rendering:geometricPrecision; text-rendering:geometricPrecision; image-rendering:optimizeQuality; fill-rule:evenodd; clip-rule:evenodd"
viewBox="0 0 4233.32 4233.32"
 xmlns:xlink="http://www.w3.org/1999/xlink"
 xmlns:xodm="http://www.corel.com/coreldraw/odm/2003">
 <defs>
  <style type="text/css">
   <![CDATA[
    .fil0 {fill:#FEFEFE}
   ]]>
  </style>
 </defs>
 <g id="Camada_x0020_1">
  <metadata id="CorelCorpID_0Corel-Layer"/>
  <g id="_2725088503472">
   <g id="_2476793317840">
    <path class="fil0" d="M3770.06 3073.14c-116.17,-89.46 -209.84,-103.27 -351.25,-281.43 -295.09,-371.78 -226.38,-957.85 150.19,-1246.03 32.15,-24.61 57.07,-35.92 92.2,-76.47 -51,-120.26 -259.4,-276.27 -403.34,-330.08 -621.95,-232.48 -895.99,163.09 -1176.42,106.14 -205.48,-41.73 -349.55,-162.61 -580.29,-168.76 -437.38,-11.65 -757.73,288.26 -897.59,565.35 -476.46,943.84 372.49,2475.18 880.47,2504.86 251.65,14.7 376.36,-118.56 593.56,-153.27 475.96,-76.03 713.17,382.42 1141.04,2.68 137.72,-122.22 527.15,-661.87 551.43,-922.99z"/>
    <path class="fil0" d="M2113.3 1022.46c480.44,10.06 840.17,-431.55 819.31,-937.8 -451.43,29.64 -848.95,443.72 -819.31,937.8z"/>
   </g>
  </g>
 </g>
</svg>
