<?xml version="1.0" encoding="UTF-8"?>
<!DOCTYPE svg PUBLIC "-//W3C//DTD SVG 1.1//EN" "http://www.w3.org/Graphics/SVG/1.1/DTD/svg11.dtd">
<!-- Creator: CorelDRAW 2020 (64 Bit) -->
<svg xmlns="http://www.w3.org/2000/svg" xml:space="preserve" width="41.9996mm" height="41.9996mm" version="1.1" style="shape-rendering:geometricPrecision; text-rendering:geometricPrecision; image-rendering:optimizeQuality; fill-rule:evenodd; clip-rule:evenodd"
viewBox="0 0 4199.96 4199.96"
 xmlns:xlink="http://www.w3.org/1999/xlink"
 xmlns:xodm="http://www.corel.com/coreldraw/odm/2003">
 <defs>
  <style type="text/css">
   <![CDATA[
    .fil0 {fill:#FEFEFE}
    .fil1 {fill:#373435}
   ]]>
  </style>
 </defs>
 <g id="Camada_x0020_1">
  <metadata id="CorelCorpID_0Corel-Layer"/>
  <g id="_1649443735888">
   <polygon class="fil0" points="-7.15,0.51 4192.85,0.51 4192.85,4200.51 -7.15,4200.51 "/>
   <g>
    <g>
     <path class="fil1" d="M2142.85 250.51l100 0 0 100 -100 0 0 -100zm100 0l100 0 0 100 -100 0 0 -100zm100 0l100 0 0 100 -100 0 0 -100zm100 0l100 0 0 100 -100 0 0 -100zm100 0l100 0 0 100 -100 0 0 -100zm-400 100l100 0 0 100 -100 0 0 -100z"/>
     <polygon class="fil1" points="2842.85,250.51 2942.85,250.51 2942.85,350.51 2842.85,350.51 "/>
     <path class="fil1" d="M2942.85 350.51l100 0 0 100 -100 0 0 -100zm100 0l100 0 0 100 -100 0 0 -100zm0 -100l100 0 0 100 -100 0 0 -100zm-100 200l100 0 0 100 -100 0 0 -100z"/>
     <path class="fil1" d="M1942.85 550.51l100 0 0 100 -100 0 0 -100zm100 0l100 0 0 100 -100 0 0 -100zm0 -100l100 0 0 100 -100 0 0 -100zm0 200l100 0 0 100 -100 0 0 -100z"/>
     <polygon class="fil1" points="2242.85,650.51 2342.85,650.51 2342.85,750.51 2242.85,750.51 "/>
     <polygon class="fil1" points="1242.85,850.51 1342.85,850.51 1342.85,950.51 1242.85,950.51 "/>
     <polygon class="fil1" points="1442.85,850.51 1542.85,850.51 1542.85,950.51 1442.85,950.51 "/>
     <polygon class="fil1" points="1342.85,950.51 1442.85,950.51 1442.85,1050.51 1342.85,1050.51 "/>
     <path class="fil1" d="M442.85 1050.51l100 0 0 100 -100 0 0 -100zm100 0l100 0 0 100 -100 0 0 -100zm100 0l100 0 0 100 -100 0 0 -100zm-100 100l100 0 0 100 -100 0 0 -100z"/>
     <polygon class="fil1" points="842.85,1050.51 942.85,1050.51 942.85,1150.51 842.85,1150.51 "/>
     <path class="fil1" d="M2142.85 1050.51l100 0 0 100 -100 0 0 -100zm100 0l100 0 0 100 -100 0 0 -100zm0 -200l100 0 0 100 -100 0 0 -100zm0 100l100 0 0 100 -100 0 0 -100zm100 0l100 0 0 100 -100 0 0 -100zm100 0l100 0 0 100 -100 0 0 -100zm0 -300l100 0 0 100 -100 0 0 -100zm0 100l100 0 0 100 -100 0 0 -100zm0 100l100 0 0 100 -100 0 0 -100zm-200 300l100 0 0 100 -100 0 0 -100z"/>
     <polygon class="fil1" points="2842.85,1050.51 2942.85,1050.51 2942.85,1150.51 2842.85,1150.51 "/>
     <path class="fil1" d="M242.85 1150.51l100 0 0 100 -100 0 0 -100zm100 0l100 0 0 100 -100 0 0 -100z"/>
     <path class="fil1" d="M1342.85 1150.51l100 0 0 100 -100 0 0 -100zm100 0l100 0 0 100 -100 0 0 -100zm0 -100l100 0 0 100 -100 0 0 -100zm100 0l100 0 0 100 -100 0 0 -100zm100 0l100 0 0 100 -100 0 0 -100zm100 0l100 0 0 100 -100 0 0 -100zm100 0l100 0 0 100 -100 0 0 -100zm-300 -300l100 0 0 100 -100 0 0 -100zm100 0l100 0 0 100 -100 0 0 -100zm100 0l100 0 0 100 -100 0 0 -100zm0 -100l100 0 0 100 -100 0 0 -100zm100 0l100 0 0 100 -100 0 0 -100zm0 100l100 0 0 100 -100 0 0 -100zm100 0l100 0 0 100 -100 0 0 -100zm-300 100l100 0 0 100 -100 0 0 -100zm200 0l100 0 0 100 -100 0 0 -100zm0 100l100 0 0 100 -100 0 0 -100zm100 0l100 0 0 100 -100 0 0 -100zm100 0l100 0 0 100 -100 0 0 -100zm0 -100l100 0 0 100 -100 0 0 -100zm-100 200l100 0 0 100 -100 0 0 -100zm-400 100l100 0 0 100 -100 0 0 -100zm100 0l100 0 0 100 -100 0 0 -100zm-300 100l100 0 0 100 -100 0 0 -100z"/>
     <polygon class="fil1" points="442.85,1250.51 542.85,1250.51 542.85,1350.51 442.85,1350.51 "/>
     <polygon class="fil1" points="3842.85,1250.51 3942.85,1250.51 3942.85,1350.51 3842.85,1350.51 "/>
     <path class="fil1" d="M542.85 1350.51l100 0 0 100 -100 0 0 -100zm100 0l100 0 0 100 -100 0 0 -100zm0 -100l100 0 0 100 -100 0 0 -100zm100 0l100 0 0 100 -100 0 0 -100zm0 -100l100 0 0 100 -100 0 0 -100zm100 100l100 0 0 100 -100 0 0 -100zm100 0l100 0 0 100 -100 0 0 -100zm0 -100l100 0 0 100 -100 0 0 -100zm100 0l100 0 0 100 -100 0 0 -100zm0 -400l100 0 0 100 -100 0 0 -100zm100 0l100 0 0 100 -100 0 0 -100zm-100 -500l100 0 0 100 -100 0 0 -100zm100 0l100 0 0 100 -100 0 0 -100zm100 0l100 0 0 100 -100 0 0 -100zm-200 100l100 0 0 100 -100 0 0 -100zm100 0l100 0 0 100 -100 0 0 -100zm100 0l100 0 0 100 -100 0 0 -100zm100 0l100 0 0 100 -100 0 0 -100zm100 0l100 0 0 100 -100 0 0 -100zm0 -100l100 0 0 100 -100 0 0 -100zm-400 200l100 0 0 100 -100 0 0 -100zm100 0l100 0 0 100 -100 0 0 -100zm200 0l100 0 0 100 -100 0 0 -100zm-200 100l100 0 0 100 -100 0 0 -100zm0 100l100 0 0 100 -100 0 0 -100zm100 0l100 0 0 100 -100 0 0 -100zm100 0l100 0 0 100 -100 0 0 -100zm100 0l100 0 0 100 -100 0 0 -100zm0 -100l100 0 0 100 -100 0 0 -100zm100 0l100 0 0 100 -100 0 0 -100zm0 -100l100 0 0 100 -100 0 0 -100zm100 0l100 0 0 100 -100 0 0 -100zm0 -100l100 0 0 100 -100 0 0 -100zm100 0l100 0 0 100 -100 0 0 -100zm0 -100l100 0 0 100 -100 0 0 -100zm100 0l100 0 0 100 -100 0 0 -100zm100 0l100 0 0 100 -100 0 0 -100zm-100 100l100 0 0 100 -100 0 0 -100zm0 100l100 0 0 100 -100 0 0 -100zm-200 100l100 0 0 100 -100 0 0 -100zm-300 200l100 0 0 100 -100 0 0 -100zm-300 100l100 0 0 100 -100 0 0 -100zm0 100l100 0 0 100 -100 0 0 -100zm0 100l100 0 0 100 -100 0 0 -100zm100 0l100 0 0 100 -100 0 0 -100zm-400 300l100 0 0 100 -100 0 0 -100zm200 0l100 0 0 100 -100 0 0 -100z"/>
     <polygon class="fil1" points="2242.85,1350.51 2342.85,1350.51 2342.85,1450.51 2242.85,1450.51 "/>
     <polygon class="fil1" points="842.85,1450.51 942.85,1450.51 942.85,1550.51 842.85,1550.51 "/>
     <polygon class="fil1" points="1042.85,1450.51 1142.85,1450.51 1142.85,1550.51 1042.85,1550.51 "/>
     <polygon class="fil1" points="3842.85,1450.51 3942.85,1450.51 3942.85,1550.51 3842.85,1550.51 "/>
     <path class="fil1" d="M242.85 1550.51l100 0 0 100 -100 0 0 -100zm0 100l100 0 0 100 -100 0 0 -100zm100 0l100 0 0 100 -100 0 0 -100zm100 0l100 0 0 100 -100 0 0 -100zm-200 100l100 0 0 100 -100 0 0 -100zm100 0l100 0 0 100 -100 0 0 -100z"/>
     <path class="fil1" d="M1142.85 1550.51l100 0 0 100 -100 0 0 -100zm100 0l100 0 0 100 -100 0 0 -100zm100 0l100 0 0 100 -100 0 0 -100zm0 -100l100 0 0 100 -100 0 0 -100zm100 0l100 0 0 100 -100 0 0 -100zm0 -100l100 0 0 100 -100 0 0 -100zm100 0l100 0 0 100 -100 0 0 -100zm100 0l100 0 0 100 -100 0 0 -100zm100 0l100 0 0 100 -100 0 0 -100zm0 -100l100 0 0 100 -100 0 0 -100zm100 0l100 0 0 100 -100 0 0 -100zm100 0l100 0 0 100 -100 0 0 -100zm100 0l100 0 0 100 -100 0 0 -100zm0 100l100 0 0 100 -100 0 0 -100zm-500 100l100 0 0 100 -100 0 0 -100zm-300 200l100 0 0 100 -100 0 0 -100z"/>
     <polygon class="fil1" points="1642.85,1550.51 1742.85,1550.51 1742.85,1650.51 1642.85,1650.51 "/>
     <path class="fil1" d="M1842.85 1550.51l100 0 0 100 -100 0 0 -100zm0 100l100 0 0 100 -100 0 0 -100zm100 0l100 0 0 100 -100 0 0 -100zm100 0l100 0 0 100 -100 0 0 -100zm0 -100l100 0 0 100 -100 0 0 -100zm100 0l100 0 0 100 -100 0 0 -100zm0 -100l100 0 0 100 -100 0 0 -100zm0 200l100 0 0 100 -100 0 0 -100z"/>
     <path class="fil1" d="M2342.85 1550.51l100 0 0 100 -100 0 0 -100zm100 0l100 0 0 100 -100 0 0 -100zm-100 -300l100 0 0 100 -100 0 0 -100zm100 0l100 0 0 100 -100 0 0 -100zm100 0l100 0 0 100 -100 0 0 -100zm-100 100l100 0 0 100 -100 0 0 -100zm0 100l100 0 0 100 -100 0 0 -100zm100 100l100 0 0 100 -100 0 0 -100zm-100 100l100 0 0 100 -100 0 0 -100zm0 100l100 0 0 100 -100 0 0 -100zm100 0l100 0 0 100 -100 0 0 -100z"/>
     <polygon class="fil1" points="1442.85,1650.51 1542.85,1650.51 1542.85,1750.51 1442.85,1750.51 "/>
     <polygon class="fil1" points="3842.85,1650.51 3942.85,1650.51 3942.85,1750.51 3842.85,1750.51 "/>
     <path class="fil1" d="M1042.85 1750.51l100 0 0 100 -100 0 0 -100zm0 100l100 0 0 100 -100 0 0 -100zm100 0l100 0 0 100 -100 0 0 -100zm100 0l100 0 0 100 -100 0 0 -100zm100 0l100 0 0 100 -100 0 0 -100zm0 -100l100 0 0 100 -100 0 0 -100zm-200 200l100 0 0 100 -100 0 0 -100zm100 0l100 0 0 100 -100 0 0 -100zm0 100l100 0 0 100 -100 0 0 -100z"/>
     <path class="fil1" d="M1542.85 1750.51l100 0 0 100 -100 0 0 -100zm100 0l100 0 0 100 -100 0 0 -100zm-100 100l100 0 0 100 -100 0 0 -100z"/>
     <polygon class="fil1" points="842.85,1850.51 942.85,1850.51 942.85,1950.51 842.85,1950.51 "/>
     <path class="fil1" d="M2142.85 1850.51l100 0 0 100 -100 0 0 -100zm100 0l100 0 0 100 -100 0 0 -100zm-100 100l100 0 0 100 -100 0 0 -100z"/>
     <path class="fil1" d="M2642.85 1850.51l100 0 0 100 -100 0 0 -100zm100 0l100 0 0 100 -100 0 0 -100zm100 0l100 0 0 100 -100 0 0 -100z"/>
     <path class="fil1" d="M3242.85 1850.51l100 0 0 100 -100 0 0 -100zm100 0l100 0 0 100 -100 0 0 -100zm-100 -200l100 0 0 100 -100 0 0 -100zm100 0l100 0 0 100 -100 0 0 -100zm100 0l100 0 0 100 -100 0 0 -100zm100 0l100 0 0 100 -100 0 0 -100zm-900 -300l100 0 0 100 -100 0 0 -100zm0 100l100 0 0 100 -100 0 0 -100zm100 0l100 0 0 100 -100 0 0 -100zm100 0l100 0 0 100 -100 0 0 -100zm-200 -600l100 0 0 100 -100 0 0 -100zm0 100l100 0 0 100 -100 0 0 -100zm100 0l100 0 0 100 -100 0 0 -100zm-100 100l100 0 0 100 -100 0 0 -100zm0 100l100 0 0 100 -100 0 0 -100zm100 0l100 0 0 100 -100 0 0 -100zm0 100l100 0 0 100 -100 0 0 -100zm100 0l100 0 0 100 -100 0 0 -100zm100 0l100 0 0 100 -100 0 0 -100zm0 -100l100 0 0 100 -100 0 0 -100zm100 100l100 0 0 100 -100 0 0 -100zm-200 100l100 0 0 100 -100 0 0 -100zm100 0l100 0 0 100 -100 0 0 -100zm0 100l100 0 0 100 -100 0 0 -100zm100 0l100 0 0 100 -100 0 0 -100zm100 0l100 0 0 100 -100 0 0 -100zm100 0l100 0 0 100 -100 0 0 -100zm-700 -1000l100 0 0 100 -100 0 0 -100zm100 0l100 0 0 100 -100 0 0 -100zm0 -100l100 0 0 100 -100 0 0 -100zm100 0l100 0 0 100 -100 0 0 -100zm-100 200l100 0 0 100 -100 0 0 -100zm100 0l100 0 0 100 -100 0 0 -100zm100 0l100 0 0 100 -100 0 0 -100zm-100 100l100 0 0 100 -100 0 0 -100zm100 0l100 0 0 100 -100 0 0 -100zm-100 100l100 0 0 100 -100 0 0 -100zm100 0l100 0 0 100 -100 0 0 -100zm100 0l100 0 0 100 -100 0 0 -100zm100 0l100 0 0 100 -100 0 0 -100zm-200 100l100 0 0 100 -100 0 0 -100zm200 0l100 0 0 100 -100 0 0 -100zm0 100l100 0 0 100 -100 0 0 -100zm0 100l100 0 0 100 -100 0 0 -100zm100 0l100 0 0 100 -100 0 0 -100zm100 0l100 0 0 100 -100 0 0 -100zm100 0l100 0 0 100 -100 0 0 -100zm-100 100l100 0 0 100 -100 0 0 -100zm100 0l100 0 0 100 -100 0 0 -100zm100 0l100 0 0 100 -100 0 0 -100zm100 0l100 0 0 100 -100 0 0 -100zm100 0l100 0 0 100 -100 0 0 -100zm0 -100l100 0 0 100 -100 0 0 -100zm100 0l100 0 0 100 -100 0 0 -100zm100 0l100 0 0 100 -100 0 0 -100zm-600 200l100 0 0 100 -100 0 0 -100zm200 0l100 0 0 100 -100 0 0 -100zm-200 100l100 0 0 100 -100 0 0 -100zm100 0l100 0 0 100 -100 0 0 -100zm100 0l100 0 0 100 -100 0 0 -100zm0 100l100 0 0 100 -100 0 0 -100zm100 0l100 0 0 100 -100 0 0 -100zm100 0l100 0 0 100 -100 0 0 -100zm-800 100l100 0 0 100 -100 0 0 -100zm200 0l100 0 0 100 -100 0 0 -100zm100 0l100 0 0 100 -100 0 0 -100zm400 0l100 0 0 100 -100 0 0 -100zm100 0l100 0 0 100 -100 0 0 -100zm100 0l100 0 0 100 -100 0 0 -100zm-900 100l100 0 0 100 -100 0 0 -100zm100 0l100 0 0 100 -100 0 0 -100zm100 0l100 0 0 100 -100 0 0 -100zm0 100l100 0 0 100 -100 0 0 -100zm100 0l100 0 0 100 -100 0 0 -100zm200 0l100 0 0 100 -100 0 0 -100zm100 0l100 0 0 100 -100 0 0 -100zm0 100l100 0 0 100 -100 0 0 -100z"/>
     <path class="fil1" d="M1642.85 1950.51l100 0 0 100 -100 0 0 -100zm100 0l100 0 0 100 -100 0 0 -100zm0 -100l100 0 0 100 -100 0 0 -100zm100 0l100 0 0 100 -100 0 0 -100z"/>
     <polygon class="fil1" points="1442.85,2050.51 1542.85,2050.51 1542.85,2150.51 1442.85,2150.51 "/>
     <path class="fil1" d="M1842.85 2050.51l100 0 0 100 -100 0 0 -100zm100 0l100 0 0 100 -100 0 0 -100zm0 -100l100 0 0 100 -100 0 0 -100zm100 100l100 0 0 100 -100 0 0 -100z"/>
     <path class="fil1" d="M2242.85 2050.51l100 0 0 100 -100 0 0 -100zm0 100l100 0 0 100 -100 0 0 -100zm100 0l100 0 0 100 -100 0 0 -100zm100 0l100 0 0 100 -100 0 0 -100zm-100 -200l100 0 0 100 -100 0 0 -100zm100 0l100 0 0 100 -100 0 0 -100zm100 0l100 0 0 100 -100 0 0 -100zm-100 100l100 0 0 100 -100 0 0 -100z"/>
     <path class="fil1" d="M2842.85 2050.51l100 0 0 100 -100 0 0 -100zm100 0l100 0 0 100 -100 0 0 -100zm100 0l100 0 0 100 -100 0 0 -100zm0 -100l100 0 0 100 -100 0 0 -100zm100 100l100 0 0 100 -100 0 0 -100zm-100 100l100 0 0 100 -100 0 0 -100zm100 0l100 0 0 100 -100 0 0 -100zm0 100l100 0 0 100 -100 0 0 -100zm100 0l100 0 0 100 -100 0 0 -100zm100 0l100 0 0 100 -100 0 0 -100zm0 -200l100 0 0 100 -100 0 0 -100zm100 0l100 0 0 100 -100 0 0 -100zm100 0l100 0 0 100 -100 0 0 -100zm0 -100l100 0 0 100 -100 0 0 -100zm100 0l100 0 0 100 -100 0 0 -100zm0 -100l100 0 0 100 -100 0 0 -100zm100 0l100 0 0 100 -100 0 0 -100zm0 -100l100 0 0 100 -100 0 0 -100zm100 100l100 0 0 100 -100 0 0 -100zm-500 300l100 0 0 100 -100 0 0 -100zm200 0l100 0 0 100 -100 0 0 -100zm-100 100l100 0 0 100 -100 0 0 -100zm-300 100l100 0 0 100 -100 0 0 -100zm200 0l100 0 0 100 -100 0 0 -100z"/>
     <path class="fil1" d="M2642.85 2150.51l100 0 0 100 -100 0 0 -100zm0 100l100 0 0 100 -100 0 0 -100zm100 0l100 0 0 100 -100 0 0 -100zm100 0l100 0 0 100 -100 0 0 -100zm100 0l100 0 0 100 -100 0 0 -100z"/>
     <path class="fil1" d="M842.85 2250.51l100 0 0 100 -100 0 0 -100zm100 0l100 0 0 100 -100 0 0 -100zm-700 0l100 0 0 100 -100 0 0 -100zm100 0l100 0 0 100 -100 0 0 -100zm0 -200l100 0 0 100 -100 0 0 -100zm100 0l100 0 0 100 -100 0 0 -100zm100 0l100 0 0 100 -100 0 0 -100zm-100 -200l100 0 0 100 -100 0 0 -100zm100 0l100 0 0 100 -100 0 0 -100zm100 0l100 0 0 100 -100 0 0 -100zm0 -300l100 0 0 100 -100 0 0 -100zm0 100l100 0 0 100 -100 0 0 -100zm100 0l100 0 0 100 -100 0 0 -100zm100 0l100 0 0 100 -100 0 0 -100zm-200 100l100 0 0 100 -100 0 0 -100zm100 0l100 0 0 100 -100 0 0 -100zm-200 200l100 0 0 100 -100 0 0 -100zm100 100l100 0 0 100 -100 0 0 -100zm100 0l100 0 0 100 -100 0 0 -100zm100 0l100 0 0 100 -100 0 0 -100zm100 0l100 0 0 100 -100 0 0 -100zm0 -100l100 0 0 100 -100 0 0 -100zm100 100l100 0 0 100 -100 0 0 -100zm-700 100l100 0 0 100 -100 0 0 -100zm100 0l100 0 0 100 -100 0 0 -100zm500 0l100 0 0 100 -100 0 0 -100zm-700 200l100 0 0 100 -100 0 0 -100zm0 100l100 0 0 100 -100 0 0 -100z"/>
     <path class="fil1" d="M2142.85 2250.51l100 0 0 100 -100 0 0 -100zm0 100l100 0 0 100 -100 0 0 -100zm100 0l100 0 0 100 -100 0 0 -100zm100 0l100 0 0 100 -100 0 0 -100zm100 0l100 0 0 100 -100 0 0 -100zm-300 100l100 0 0 100 -100 0 0 -100z"/>
     <path class="fil1" d="M1042.85 2350.51l100 0 0 100 -100 0 0 -100zm100 0l100 0 0 100 -100 0 0 -100zm0 -100l100 0 0 100 -100 0 0 -100zm100 0l100 0 0 100 -100 0 0 -100zm-200 200l100 0 0 100 -100 0 0 -100zm0 100l100 0 0 100 -100 0 0 -100zm100 0l100 0 0 100 -100 0 0 -100zm0 100l100 0 0 100 -100 0 0 -100z"/>
     <path class="fil1" d="M1342.85 2350.51l100 0 0 100 -100 0 0 -100zm100 0l100 0 0 100 -100 0 0 -100zm100 0l100 0 0 100 -100 0 0 -100zm0 -200l100 0 0 100 -100 0 0 -100zm0 100l100 0 0 100 -100 0 0 -100zm100 0l100 0 0 100 -100 0 0 -100zm100 0l100 0 0 100 -100 0 0 -100zm0 -100l100 0 0 100 -100 0 0 -100zm100 100l100 0 0 100 -100 0 0 -100zm-200 100l100 0 0 100 -100 0 0 -100zm100 0l100 0 0 100 -100 0 0 -100zm0 100l100 0 0 100 -100 0 0 -100z"/>
     <polygon class="fil1" points="1942.85,2350.51 2042.85,2350.51 2042.85,2450.51 1942.85,2450.51 "/>
     <path class="fil1" d="M442.85 2450.51l100 0 0 100 -100 0 0 -100zm100 0l100 0 0 100 -100 0 0 -100zm0 -100l100 0 0 100 -100 0 0 -100zm0 200l100 0 0 100 -100 0 0 -100zm100 0l100 0 0 100 -100 0 0 -100z"/>
     <path class="fil1" d="M742.85 2450.51l100 0 0 100 -100 0 0 -100zm100 0l100 0 0 100 -100 0 0 -100z"/>
     <polygon class="fil1" points="2942.85,2450.51 3042.85,2450.51 3042.85,2550.51 2942.85,2550.51 "/>
     <path class="fil1" d="M3542.85 2450.51l100 0 0 100 -100 0 0 -100zm100 0l100 0 0 100 -100 0 0 -100zm0 -200l100 0 0 100 -100 0 0 -100zm100 0l100 0 0 100 -100 0 0 -100zm100 0l100 0 0 100 -100 0 0 -100zm-100 -200l100 0 0 100 -100 0 0 -100zm100 0l100 0 0 100 -100 0 0 -100zm0 100l100 0 0 100 -100 0 0 -100zm-200 200l100 0 0 100 -100 0 0 -100zm100 100l100 0 0 100 -100 0 0 -100zm100 0l100 0 0 100 -100 0 0 -100zm0 100l100 0 0 100 -100 0 0 -100z"/>
     <path class="fil1" d="M1542.85 2550.51l100 0 0 100 -100 0 0 -100zm100 0l100 0 0 100 -100 0 0 -100zm-100 100l100 0 0 100 -100 0 0 -100zm100 0l100 0 0 100 -100 0 0 -100zm100 0l100 0 0 100 -100 0 0 -100zm-200 100l100 0 0 100 -100 0 0 -100z"/>
     <path class="fil1" d="M1942.85 2550.51l100 0 0 100 -100 0 0 -100zm100 0l100 0 0 100 -100 0 0 -100z"/>
     <polygon class="fil1" points="2842.85,2550.51 2942.85,2550.51 2942.85,2650.51 2842.85,2650.51 "/>
     <path class="fil1" d="M2142.85 2650.51l100 0 0 100 -100 0 0 -100zm100 0l100 0 0 100 -100 0 0 -100zm0 -100l100 0 0 100 -100 0 0 -100zm100 100l100 0 0 100 -100 0 0 -100zm100 0l100 0 0 100 -100 0 0 -100zm0 -100l100 0 0 100 -100 0 0 -100zm100 0l100 0 0 100 -100 0 0 -100zm0 -100l100 0 0 100 -100 0 0 -100zm100 100l100 0 0 100 -100 0 0 -100zm-100 100l100 0 0 100 -100 0 0 -100zm-400 100l100 0 0 100 -100 0 0 -100z"/>
     <path class="fil1" d="M242.85 2750.51l100 0 0 100 -100 0 0 -100zm100 0l100 0 0 100 -100 0 0 -100zm0 -200l100 0 0 100 -100 0 0 -100zm0 100l100 0 0 100 -100 0 0 -100zm100 100l100 0 0 100 -100 0 0 -100zm100 0l100 0 0 100 -100 0 0 -100zm100 0l100 0 0 100 -100 0 0 -100zm-400 100l100 0 0 100 -100 0 0 -100zm300 0l100 0 0 100 -100 0 0 -100zm100 0l100 0 0 100 -100 0 0 -100zm100 0l100 0 0 100 -100 0 0 -100zm100 0l100 0 0 100 -100 0 0 -100zm100 0l100 0 0 100 -100 0 0 -100zm-100 -200l100 0 0 100 -100 0 0 -100zm100 0l100 0 0 100 -100 0 0 -100zm0 100l100 0 0 100 -100 0 0 -100zm100 0l100 0 0 100 -100 0 0 -100zm-800 200l100 0 0 100 -100 0 0 -100zm400 0l100 0 0 100 -100 0 0 -100zm300 0l100 0 0 100 -100 0 0 -100zm-700 100l100 0 0 100 -100 0 0 -100zm400 0l100 0 0 100 -100 0 0 -100zm100 0l100 0 0 100 -100 0 0 -100zm100 0l100 0 0 100 -100 0 0 -100z"/>
     <polygon class="fil1" points="1342.85,2750.51 1442.85,2750.51 1442.85,2850.51 1342.85,2850.51 "/>
     <polygon class="fil1" points="2642.85,2750.51 2742.85,2750.51 2742.85,2850.51 2642.85,2850.51 "/>
     <path class="fil1" d="M2842.85 2750.51l100 0 0 100 -100 0 0 -100zm100 0l100 0 0 100 -100 0 0 -100zm100 0l100 0 0 100 -100 0 0 -100zm100 0l100 0 0 100 -100 0 0 -100zm100 0l100 0 0 100 -100 0 0 -100zm-100 -200l100 0 0 100 -100 0 0 -100zm100 0l100 0 0 100 -100 0 0 -100zm0 -100l100 0 0 100 -100 0 0 -100zm100 100l100 0 0 100 -100 0 0 -100zm-100 100l100 0 0 100 -100 0 0 -100zm0 200l100 0 0 100 -100 0 0 -100zm100 0l100 0 0 100 -100 0 0 -100zm100 0l100 0 0 100 -100 0 0 -100zm-100 100l100 0 0 100 -100 0 0 -100zm100 0l100 0 0 100 -100 0 0 -100zm100 0l100 0 0 100 -100 0 0 -100zm0 100l100 0 0 100 -100 0 0 -100zm100 0l100 0 0 100 -100 0 0 -100zm100 0l100 0 0 100 -100 0 0 -100zm-200 -400l100 0 0 100 -100 0 0 -100zm100 0l100 0 0 100 -100 0 0 -100zm100 0l100 0 0 100 -100 0 0 -100zm-100 100l100 0 0 100 -100 0 0 -100zm0 100l100 0 0 100 -100 0 0 -100zm100 0l100 0 0 100 -100 0 0 -100zm100 0l100 0 0 100 -100 0 0 -100zm-100 100l100 0 0 100 -100 0 0 -100zm100 0l100 0 0 100 -100 0 0 -100zm0 100l100 0 0 100 -100 0 0 -100zm-100 100l100 0 0 100 -100 0 0 -100z"/>
     <path class="fil1" d="M1242.85 2850.51l100 0 0 100 -100 0 0 -100zm0 100l100 0 0 100 -100 0 0 -100z"/>
     <polygon class="fil1" points="1442.85,2850.51 1542.85,2850.51 1542.85,2950.51 1442.85,2950.51 "/>
     <polygon class="fil1" points="2742.85,2850.51 2842.85,2850.51 2842.85,2950.51 2742.85,2950.51 "/>
     <polygon class="fil1" points="442.85,2950.51 542.85,2950.51 542.85,3050.51 442.85,3050.51 "/>
     <path class="fil1" d="M2642.85 2950.51l100 0 0 100 -100 0 0 -100zm0 100l100 0 0 100 -100 0 0 -100zm100 0l100 0 0 100 -100 0 0 -100zm100 0l100 0 0 100 -100 0 0 -100zm0 -100l100 0 0 100 -100 0 0 -100zm-100 200l100 0 0 100 -100 0 0 -100z"/>
     <path class="fil1" d="M3042.85 2950.51l100 0 0 100 -100 0 0 -100zm100 0l100 0 0 100 -100 0 0 -100z"/>
     <path class="fil1" d="M1342.85 3050.51l100 0 0 100 -100 0 0 -100zm100 0l100 0 0 100 -100 0 0 -100zm100 0l100 0 0 100 -100 0 0 -100zm100 0l100 0 0 100 -100 0 0 -100zm100 0l100 0 0 100 -100 0 0 -100zm0 -200l100 0 0 100 -100 0 0 -100zm0 100l100 0 0 100 -100 0 0 -100zm100 0l100 0 0 100 -100 0 0 -100zm100 0l100 0 0 100 -100 0 0 -100zm0 -200l100 0 0 100 -100 0 0 -100zm0 100l100 0 0 100 -100 0 0 -100zm100 0l100 0 0 100 -100 0 0 -100zm-700 300l100 0 0 100 -100 0 0 -100zm200 0l100 0 0 100 -100 0 0 -100zm200 0l100 0 0 100 -100 0 0 -100z"/>
     <polygon class="fil1" points="1942.85,3150.51 2042.85,3150.51 2042.85,3250.51 1942.85,3250.51 "/>
     <polygon class="fil1" points="2942.85,3150.51 3042.85,3150.51 3042.85,3250.51 2942.85,3250.51 "/>
     <polygon class="fil1" points="3542.85,3250.51 3642.85,3250.51 3642.85,3350.51 3542.85,3350.51 "/>
     <polygon class="fil1" points="3842.85,3250.51 3942.85,3250.51 3942.85,3350.51 3842.85,3350.51 "/>
     <path class="fil1" d="M1042.85 3450.51l100 0 0 100 -100 0 0 -100zm0 100l100 0 0 100 -100 0 0 -100zm100 0l100 0 0 100 -100 0 0 -100zm-100 100l100 0 0 100 -100 0 0 -100zm100 0l100 0 0 100 -100 0 0 -100zm100 0l100 0 0 100 -100 0 0 -100zm100 0l100 0 0 100 -100 0 0 -100zm-300 -500l100 0 0 100 -100 0 0 -100zm100 0l100 0 0 100 -100 0 0 -100zm0 100l100 0 0 100 -100 0 0 -100zm100 0l100 0 0 100 -100 0 0 -100zm-100 100l100 0 0 100 -100 0 0 -100zm100 0l100 0 0 100 -100 0 0 -100zm0 100l100 0 0 100 -100 0 0 -100zm100 0l100 0 0 100 -100 0 0 -100zm100 0l100 0 0 100 -100 0 0 -100zm0 -200l100 0 0 100 -100 0 0 -100zm0 100l100 0 0 100 -100 0 0 -100zm100 100l100 0 0 100 -100 0 0 -100zm-200 100l100 0 0 100 -100 0 0 -100zm200 0l100 0 0 100 -100 0 0 -100zm100 0l100 0 0 100 -100 0 0 -100zm100 0l100 0 0 100 -100 0 0 -100zm-600 200l100 0 0 100 -100 0 0 -100zm0 100l100 0 0 100 -100 0 0 -100zm100 0l100 0 0 100 -100 0 0 -100zm100 0l100 0 0 100 -100 0 0 -100z"/>
     <path class="fil1" d="M3642.85 3450.51l100 0 0 100 -100 0 0 -100zm100 0l100 0 0 100 -100 0 0 -100zm0 -100l100 0 0 100 -100 0 0 -100z"/>
     <polygon class="fil1" points="2442.85,3550.51 2542.85,3550.51 2542.85,3650.51 2442.85,3650.51 "/>
     <polygon class="fil1" points="3242.85,3550.51 3342.85,3550.51 3342.85,3650.51 3242.85,3650.51 "/>
     <path class="fil1" d="M3442.85 3550.51l100 0 0 100 -100 0 0 -100zm100 0l100 0 0 100 -100 0 0 -100zm0 100l100 0 0 100 -100 0 0 -100zm0 100l100 0 0 100 -100 0 0 -100z"/>
     <path class="fil1" d="M3342.85 3650.51l100 0 0 100 -100 0 0 -100zm0 100l100 0 0 100 -100 0 0 -100z"/>
     <path class="fil1" d="M1542.85 3750.51l100 0 0 100 -100 0 0 -100zm100 0l100 0 0 100 -100 0 0 -100z"/>
     <path class="fil1" d="M1842.85 3750.51l100 0 0 100 -100 0 0 -100zm0 100l100 0 0 100 -100 0 0 -100zm100 0l100 0 0 100 -100 0 0 -100zm100 0l100 0 0 100 -100 0 0 -100zm0 -100l100 0 0 100 -100 0 0 -100zm100 0l100 0 0 100 -100 0 0 -100zm0 -200l100 0 0 100 -100 0 0 -100zm0 100l100 0 0 100 -100 0 0 -100zm100 100l100 0 0 100 -100 0 0 -100z"/>
     <path class="fil1" d="M2342.85 3850.51l100 0 0 100 -100 0 0 -100zm100 0l100 0 0 100 -100 0 0 -100zm100 0l100 0 0 100 -100 0 0 -100zm0 -200l100 0 0 100 -100 0 0 -100zm100 0l100 0 0 100 -100 0 0 -100zm100 0l100 0 0 100 -100 0 0 -100zm100 0l100 0 0 100 -100 0 0 -100zm-1000 -400l100 0 0 100 -100 0 0 -100zm0 100l100 0 0 100 -100 0 0 -100zm0 100l100 0 0 100 -100 0 0 -100zm100 0l100 0 0 100 -100 0 0 -100zm100 0l100 0 0 100 -100 0 0 -100zm0 -100l100 0 0 100 -100 0 0 -100zm100 0l100 0 0 100 -100 0 0 -100zm-100 -300l100 0 0 100 -100 0 0 -100zm100 0l100 0 0 100 -100 0 0 -100zm100 0l100 0 0 100 -100 0 0 -100zm0 -100l100 0 0 100 -100 0 0 -100zm100 0l100 0 0 100 -100 0 0 -100zm0 -100l100 0 0 100 -100 0 0 -100zm100 0l100 0 0 100 -100 0 0 -100zm0 100l100 0 0 100 -100 0 0 -100zm-300 200l100 0 0 100 -100 0 0 -100zm100 0l100 0 0 100 -100 0 0 -100zm-100 100l100 0 0 100 -100 0 0 -100zm100 0l100 0 0 100 -100 0 0 -100zm0 100l100 0 0 100 -100 0 0 -100zm100 0l100 0 0 100 -100 0 0 -100zm100 0l100 0 0 100 -100 0 0 -100zm0 -200l100 0 0 100 -100 0 0 -100zm100 0l100 0 0 100 -100 0 0 -100zm-100 100l100 0 0 100 -100 0 0 -100zm100 100l100 0 0 100 -100 0 0 -100zm-300 100l100 0 0 100 -100 0 0 -100zm300 0l100 0 0 100 -100 0 0 -100zm100 0l100 0 0 100 -100 0 0 -100zm100 0l100 0 0 100 -100 0 0 -100zm100 0l100 0 0 100 -100 0 0 -100zm100 0l100 0 0 100 -100 0 0 -100zm-100 100l100 0 0 100 -100 0 0 -100zm100 0l100 0 0 100 -100 0 0 -100zm0 100l100 0 0 100 -100 0 0 -100zm-400 100l100 0 0 100 -100 0 0 -100zm400 0l100 0 0 100 -100 0 0 -100zm100 0l100 0 0 100 -100 0 0 -100zm100 0l100 0 0 100 -100 0 0 -100zm0 -100l100 0 0 100 -100 0 0 -100zm-500 200l100 0 0 100 -100 0 0 -100zm100 0l100 0 0 100 -100 0 0 -100zm100 0l100 0 0 100 -100 0 0 -100z"/>
     <polygon class="fil1" points="3442.85,3850.51 3542.85,3850.51 3542.85,3950.51 3442.85,3950.51 "/>
     <path class="fil1" d="M3642.85 3850.51l100 0 0 100 -100 0 0 -100zm100 0l100 0 0 100 -100 0 0 -100zm100 0l100 0 0 100 -100 0 0 -100zm0 -200l100 0 0 100 -100 0 0 -100zm0 100l100 0 0 100 -100 0 0 -100z"/>
    </g>
    <g>
     <path class="fil1" d="M242.85 250.51l700 0 0 700 -700 0 0 -700zm200 100l-100 0 0 500 500 0 0 -500 -400 0zm2800 -100l700 0 0 700 -700 0 0 -700zm200 100l-100 0 0 500 500 0 0 -500 -400 0zm-400 2700l500 0 0 500 -500 0 0 -500zm200 100l-100 0 0 300 300 0 0 -300 -200 0zm-3000 100l700 0 0 700 -700 0 0 -700zm200 100l-100 0 0 500 500 0 0 -500 -400 0z"/>
    </g>
    <g>
     <path class="fil1" d="M442.85 450.51l300 0 0 300 -300 0 0 -300zm3000 0l300 0 0 300 -300 0 0 -300zm-200 2800l100 0 0 100 -100 0 0 -100zm-2800 200l300 0 0 300 -300 0 0 -300z"/>
    </g>
   </g>
  </g>
 </g>
</svg>
