<?xml version="1.0" encoding="UTF-8"?>
<!DOCTYPE svg PUBLIC "-//W3C//DTD SVG 1.1//EN" "http://www.w3.org/Graphics/SVG/1.1/DTD/svg11.dtd">
<!-- Creator: CorelDRAW 2020 (64 Bit) -->
<svg xmlns="http://www.w3.org/2000/svg" xml:space="preserve" width="16.9332mm" height="14.405mm" version="1.1" style="shape-rendering:geometricPrecision; text-rendering:geometricPrecision; image-rendering:optimizeQuality; fill-rule:evenodd; clip-rule:evenodd"
viewBox="0 0 1693.32 1440.5"
 xmlns:xlink="http://www.w3.org/1999/xlink"
 xmlns:xodm="http://www.corel.com/coreldraw/odm/2003">
 <defs>
  <style type="text/css">
   <![CDATA[
    .fil1 {fill:#6657FF}
    .fil0 {fill:#CF00FF}
   ]]>
  </style>
 </defs>
 <g id="Camada_x0020_1">
  <metadata id="CorelCorpID_0Corel-Layer"/>
  <g id="_2452264735776">
   <path class="fil0" d="M130.74 1066.22c-35.47,27.89 -72.01,53.03 -98.93,90.63 -90.72,126.76 24.62,330.18 201.91,285.15 51.52,-13.09 85.22,-46.42 116.95,-72.57 35.6,-29.34 68.63,-55.89 104.37,-85.19l156.63 -127.76c50.52,-38.93 106.52,-89.3 154.99,-126.51 58.36,-44.81 123.51,-101.13 183.47,-149.76 45.01,-36.5 79.97,-77.01 83.99,-149.29 6.23,-111.78 -81.74,-166.36 -155.29,-224.66l-527.91 -420.09c-31.17,-25.09 -65.77,-57.68 -115.16,-71.33 -115.34,-31.9 -211.39,50.9 -230.35,138.89 -27.01,125.39 52.04,178.51 126.82,237.32l419.39 336.88 -420.88 338.29z"/>
   <path class="fil1" d="M1489.34 1437.67c-11.49,-5.06 -73.6,-7.89 -116.89,-57.56 -47.21,-54.18 -65.62,-121.29 -37.9,-195.91 14.99,-40.34 46.11,-72.78 81.91,-93.39 24.08,-13.86 47.24,-14.84 64.76,-24.13 -150.3,-5.88 -360.96,-0.38 -522.44,-0.48 -63.96,-0.04 -45.25,0.63 -117.09,55.97l-338.49 267.67c-34.63,27.48 -37.46,24.15 -26.54,48.35l1012.68 -0.52z"/>
   <path class="fil0" d="M1489.34 1437.67c67.47,2.69 112.25,-20.39 147.7,-51.64 13.01,-11.47 30.14,-38 39.85,-57.8 37.02,-75.56 7.12,-174.49 -46.31,-214.91 -44.98,-34.03 -74.11,-49.05 -149.36,-46.64 -17.52,9.29 -40.68,10.27 -64.76,24.13 -35.8,20.61 -66.92,53.05 -81.91,93.39 -27.72,74.62 -9.31,141.73 37.9,195.91 43.29,49.67 105.4,52.5 116.89,57.56z"/>
  </g>
 </g>
</svg>
